<?xml version="1.0" encoding="UTF-8"?><svg id="Layer_2" xmlns="http://www.w3.org/2000/svg" viewBox="0 0 488.79 67.33"><defs><style>.cls-1{fill:none;stroke:#ce202f;stroke-miterlimit:10;stroke-width:.94px;}</style></defs><g id="Layer_1-2"><path class="cls-1" d="M488.79,65.39l-7.51,.1,.02,1.31-3.38,.05-.05-3.57-3.38,.05-.06-4.51-12.58,.17,.04,2.82-2.25,.03,.03,2.44-2.25,.03-.16-12.02-5.26,.07,.03,1.88-8.26,.11,.04,2.63-2.63,.04-.05-3.94-12.77,.17,.09,6.38-6.38,.09-.15-9.26-17.62,.11,.16,11.83-3,.04-.17-12.77-2.25,.03-.03-2.25-3,.04,.04,2.63-1.5,.02,.1,7.13-1.31,.02,.13,9.2-1.88,.03-.07-5.07-2.25,.03-.49-35.49-1.88,.03-.05-3.94-16.52,.23,.06,4.13-1.31,.02-.2-14.27-6.57,.09-.03-2.25-4.51,.06,.04,2.82-2.07,.03,.39,28.54-3.94,.05-.15-11.27-1.5,.02-.11-7.89-.95-.93-.2-14.27-2.25,.03-.09-6.76-7.51,.1,.08,5.82-1.88,.03,.04,2.63-1.69,.02,.21,15.4-2.44,.03-.1-6.95-18.4,.25,.12,9.01-4.69,.06-.02-1.69-3.19,.04,.04,2.63-6.2,.08-.06-4.32-5.07,.07-.04-3.19-3.57,.05,.03,2.44-10.52,.14,.4,28.91-5.45,.07,.04,3-2.82,.04,.04,2.72-7.32,.1,.09,6.48-1.69,.02-.35-25.54-15.4,.21,.06,4.69-9.01,.12,.22,16.33-5.82,.08-.03-1.97-4.13,.06-.04-2.91-11.26,.15,.04,2.91-5.82,.08,.03,2.35-2.25,.03-.32-23.47-19.9,.27,.35,25.54-4.88,.07-.14-10.14-8.26,.11,.17,12.39-6.29-.2-.17-27.03,.93-1.57-.03-5.29-10.32,.26-2.04,.99-8.36,.2-.08-12.32s-1.81-.86-4.11-1.62c0-1.52,.01-6.73,.01-6.73,0,0-1.77-2.39-5.83-2.39-4.3,0-5.95,2.59-5.95,2.59,0,0-.17,5.65-.17,6.82-1.73,.71-2.96,1.42-2.96,1.42l.18,11.67-10.73,.16-1.73-.93-8.77,.07,.04,5.49,.95,1.57,.16,24.8-6.73,.04-.08-23.04c-.76,0-9.46,.01-10.22,.02-.02,0,.1,11.02,.08,11.02-.58,0-3.98,0-4.55,0l-.48-26.04-12.4,.02h-6.52l.47,26.05-13.86,.02,.1,14.69L0,66.85"/></g></svg>