<?xml version="1.0" encoding="UTF-8"?><svg id="Layer_2" xmlns="http://www.w3.org/2000/svg" viewBox="0 0 118.03 90.23"><defs><style>.cls-1{fill:#ce0e2d;}.cls-2{fill:#231f20;}</style></defs><g id="Layer_1-2"><g><g><path class="cls-2" d="M0,71.59H3.23v6.38c1.33-1.65,3.28-2.09,4.51-2.09,3.2,0,6.75,2.34,6.75,7.12s-3.2,7.24-6.9,7.24c-2.12,0-3.77-1.03-4.48-2.36v1.95H0v-18.22Zm11.25,11.43c0-2.22-1.7-4.14-4.06-4.14-2.51,0-4.09,1.97-4.09,4.16s1.58,4.19,4.01,4.19c2.63,0,4.14-2.09,4.14-4.19v-.02Z"/><path class="cls-2" d="M30.39,84.89c-.76,3-3.45,5.34-6.94,5.34-4.28,0-7.24-3.32-7.24-7.19s3.08-7.17,7.12-7.17c3.4,0,6.28,2.14,7.07,5.44h-3.3c-.57-1.43-1.87-2.44-3.64-2.44-1.18-.02-2.09,.39-2.88,1.16-.69,.74-1.11,1.82-1.11,3,0,2.44,1.7,4.16,3.99,4.16,2.02,0,3.15-1.21,3.64-2.31h3.3Z"/><path class="cls-2" d="M38.66,79.94c-.02-.71-.39-1.45-1.65-1.45-1.08,0-1.6,.69-1.6,1.35,.02,.86,1.01,1.33,2.29,1.7,2.17,.59,4.51,1.23,4.53,4.14,.05,2.78-2.29,4.56-5.12,4.56-2.09,0-4.93-1.08-5.17-4.36h3.23c.12,1.45,1.38,1.75,1.99,1.75,1.01,0,1.87-.66,1.85-1.58,0-1.16-1.01-1.48-3.5-2.34-1.82-.57-3.3-1.58-3.32-3.52,0-2.66,2.24-4.31,4.85-4.31,1.82,0,4.53,.81,4.8,4.06h-3.18Z"/><path class="cls-2" d="M44.23,76.42h2.41v1.9c.57-1.13,2.12-2.29,4.06-2.29,1.23,0,2.51,.37,3.45,1.43,.34,.34,.71,1.06,.86,1.31,.22-.39,.49-.86,.96-1.33,.86-.86,2.09-1.4,3.55-1.4,1.23,0,2.61,.34,3.6,1.35,1.18,1.21,1.48,2.49,1.48,5.05v7.39h-2.56v-7.29c0-1.11-.15-2.22-.74-2.98-.47-.69-1.18-1.11-2.39-1.11-1.13,0-2.09,.47-2.59,1.28-.54,.84-.62,1.58-.62,2.71v7.39h-2.59v-7.39c.02-1.11-.1-1.92-.54-2.66-.49-.79-1.28-1.31-2.54-1.33-1.21-.02-2.09,.57-2.54,1.31-.49,.71-.71,1.65-.71,2.73v7.34h-2.56v-13.4Z"/><path class="cls-2" d="M69.02,83.93c.12,2.71,2.49,4.09,4.51,4.09,1.8,0,3.13-.86,3.87-2.27h2.66c-.64,1.48-1.58,2.59-2.71,3.32-1.13,.76-2.46,1.13-3.82,1.13-4.38,0-7.09-3.52-7.09-7.07,0-3.84,3-7.12,7.07-7.12,1.92,0,3.67,.71,4.95,1.97,1.58,1.6,2.24,3.69,2.02,5.93h-11.45Zm8.91-1.99c-.12-1.77-1.9-3.77-4.43-3.72-2.61,0-4.31,1.9-4.43,3.72h8.87Z"/><path class="cls-2" d="M96.06,89.82h-2.46v-2.34c-.74,1.38-2.24,2.73-5,2.73-4.21,0-6.87-3.25-6.87-7.12,0-4.16,3-7.07,6.82-7.07,2.73,0,4.41,1.53,4.95,2.59v-7.02h2.56v18.22Zm-11.77-6.7c.02,2.46,1.75,4.7,4.7,4.7,1.31,0,2.51-.54,3.35-1.4,.86-.86,1.35-2.04,1.31-3.37,0-1.33-.52-2.49-1.35-3.3-.84-.84-1.99-1.33-3.3-1.33-2.83,0-4.7,2.17-4.7,4.68v.02Z"/><path class="cls-2" d="M98.97,71.59h2.56v2.71h-2.56v-2.71Zm0,4.83h2.56v13.4h-2.56v-13.4Z"/><path class="cls-2" d="M118.03,89.82h-2.56v-2.34c-.94,1.8-2.86,2.73-4.97,2.73-4.31,0-6.87-3.35-6.87-7.09,0-4.09,2.98-7.09,6.87-7.09,2.66,0,4.36,1.48,4.97,2.76v-2.36h2.56v13.4Zm-11.84-6.65c.02,1.99,1.43,4.65,4.68,4.65,2.04,0,3.5-1.13,4.16-2.66,.3-.62,.44-1.31,.47-1.99,.02-.69-.1-1.38-.39-1.99-.64-1.55-2.14-2.76-4.28-2.76-2.81,0-4.63,2.22-4.63,4.73v.02Z"/></g><path class="cls-1" d="M16,61.52c-1.19,0-2.38-.4-3.36-1.22-2.22-1.86-2.52-5.17-.66-7.39L51.51,5.59C56.31-.16,64.54-1.68,71.08,1.99c6.81,3.81,9.75,12.15,6.84,19.39v.03l-9.01,22.01c-.99,2.5-.06,5.34,2.22,6.77,2.2,1.37,5.03,.84,6.89-1.28l17.37-20.71c1.86-2.22,5.17-2.51,7.4-.65,2.22,1.86,2.51,5.17,.65,7.4l-17.4,20.75s-.04,.04-.05,.06c-5.24,6.05-13.82,7.45-20.41,3.34-6.61-4.12-9.3-12.36-6.41-19.59v-.04l9.01-22.01c.94-2.36-.02-5.07-2.23-6.31-2.13-1.2-4.82-.7-6.38,1.18L20.03,59.63c-1.04,1.24-2.53,1.88-4.03,1.88Z"/></g></g></svg>