<?xml version="1.0" encoding="UTF-8"?><svg id="Layer_2" xmlns="http://www.w3.org/2000/svg" viewBox="0 0 122.7 59.77"><defs><style>.cls-1{fill:#bcbec0;}.cls-2{fill:#ce202f;}.cls-3{fill:#231f20;}.cls-4{fill:#fff;stroke:#a7a9ac;stroke-miterlimit:10;stroke-width:.25px;}</style></defs><g id="Layer_2-2"><g><g><path class="cls-1" d="M89.93,58.3c.4,0,.73,.33,.73,.73s-.32,.73-.73,.73h0c-.4,0-.73-.33-.73-.73s.33-.73,.73-.73"/><path class="cls-1" d="M75.07,58.3c.4,0,.74,.33,.74,.73s-.32,.73-.72,.73h-.02c-.4,0-.73-.33-.73-.73s.33-.73,.73-.73m-14.87,0c.4,0,.74,.33,.74,.73s-.32,.73-.72,.73h-.01c-.4,0-.73-.33-.73-.73s.33-.73,.73-.73m-14.87,0c.4,0,.74,.33,.74,.73s-.32,.73-.72,.73h-.02c-.4,0-.73-.33-.73-.73s.33-.73,.73-.73m-14.87,0c.4,0,.74,.33,.74,.73s-.32,.73-.72,.73h-.01c-.4,0-.73-.33-.73-.73s.33-.73,.73-.73m-14.87,0c.4,0,.74,.33,.74,.73s-.32,.73-.72,.73h-.02c-.4,0-.73-.33-.73-.73s.33-.73,.73-.73"/><path class="cls-1" d="M.73,58.3c.4,0,.73,.33,.73,.73s-.32,.73-.73,.73h0c-.4,0-.73-.33-.73-.73s.33-.73,.73-.73"/><path class="cls-1" d="M89.93,42.04c.4,0,.73,.33,.73,.73s-.32,.73-.73,.73h0c-.4,0-.73-.33-.73-.73s.33-.73,.73-.73"/><path class="cls-1" d="M75.07,42.04c.4,0,.74,.33,.74,.73s-.32,.73-.72,.73h-.02c-.4,0-.73-.33-.73-.73s.33-.73,.73-.73m-14.87,0c.4,0,.74,.33,.74,.73s-.32,.73-.72,.73h-.01c-.4,0-.73-.33-.73-.73s.33-.73,.73-.73m-14.87,0c.4,0,.74,.33,.74,.73s-.32,.73-.72,.73h-.02c-.4,0-.73-.33-.73-.73s.33-.73,.73-.73m-14.87,0c.4,0,.74,.33,.74,.73s-.32,.73-.72,.73h-.01c-.4,0-.73-.33-.73-.73s.33-.73,.73-.73m-14.87,0c.4,0,.74,.33,.74,.73s-.32,.73-.72,.73h-.02c-.4,0-.73-.33-.73-.73s.33-.73,.73-.73"/><path class="cls-1" d="M.73,42.04c.4,0,.73,.33,.73,.73s-.32,.73-.73,.73h0c-.4,0-.73-.33-.73-.73s.33-.73,.73-.73"/><path class="cls-1" d="M89.93,25.78c.4,0,.73,.33,.73,.73s-.32,.73-.73,.73h0c-.4,0-.73-.33-.73-.73s.33-.73,.73-.73"/><path class="cls-1" d="M75.07,25.78c.4,0,.74,.33,.74,.73s-.32,.73-.72,.73h-.02c-.4,0-.73-.33-.73-.73s.33-.73,.73-.73m-14.87,0c.4,0,.74,.33,.74,.73s-.32,.73-.72,.73h-.01c-.4,0-.73-.33-.73-.73s.33-.73,.73-.73m-14.87,0c.4,0,.74,.33,.74,.73s-.32,.73-.72,.73h-.02c-.4,0-.73-.33-.73-.73s.33-.73,.73-.73m-14.87,0c.4,0,.74,.33,.74,.73s-.32,.73-.72,.73h-.01c-.4,0-.73-.33-.73-.73s.33-.73,.73-.73m-14.87,0c.4,0,.74,.33,.74,.73s-.32,.73-.72,.73h-.02c-.4,0-.73-.33-.73-.73s.33-.73,.73-.73"/><path class="cls-1" d="M.73,25.78c.4,0,.73,.33,.73,.73s-.32,.73-.73,.73h0c-.4,0-.73-.33-.73-.73s.33-.73,.73-.73"/></g><path class="cls-2" d="M30.39,3.17h2.24v2.46h-2.24V3.17Zm0,3.72h2.24V15.47h-2.24V6.9Z"/><path class="cls-2" d="M35.27,0h3.91c1.53,0,3.75,.15,5.22,2.13,.9,1.13,1.26,2.49,1.26,4,0,3.47-1.83,6.17-6.3,6.17h-4.09V0Zm2.48,10.12h1.75c2.66,0,3.69-1.74,3.69-3.96,0-.96-.25-1.99-.83-2.76-.52-.66-1.35-1.23-2.84-1.23h-1.76v7.94Z"/><path class="cls-2" d="M56.75,12.3h-2.18v-1.31c-.58,1.06-1.79,1.6-3.07,1.6-2.92,0-4.64-2.28-4.64-4.85,0-2.87,2.08-4.84,4.64-4.84,1.66,0,2.67,.88,3.07,1.61v-1.33h2.18V12.3Zm-7.71-4.52c0,1.13,.81,2.77,2.77,2.77,1.21,0,2.01-.63,2.43-1.46,.22-.4,.32-.83,.35-1.28,.02-.43-.07-.88-.25-1.28-.38-.86-1.23-1.61-2.54-1.61-1.76,0-2.76,1.43-2.76,2.84v.02Z"/><path class="cls-2" d="M58.91,0h2.18V12.3h-2.18V0Z"/><path class="cls-2" d="M64.84,8.46c.1,1.46,1.4,2.28,2.64,2.26,1.06,0,1.78-.48,2.19-1.23h2.24c-.43,1.01-1.08,1.78-1.84,2.29-.76,.53-1.66,.8-2.61,.8-2.81,0-4.82-2.28-4.82-4.82s2.03-4.87,4.79-4.87c1.36,0,2.56,.52,3.41,1.4,1.11,1.15,1.53,2.58,1.35,4.17h-7.34Zm5.2-1.66c-.08-.86-1-2.08-2.59-2.06-1.61,0-2.49,1.16-2.58,2.06h5.17Z"/><path class="cls-2" d="M77.99,0h2.56l3.07,9.34,3.11-9.34h2.56l-4.4,12.3h-2.51L77.99,0Z"/><path class="cls-2" d="M90.6,0h2.18V1.94h-2.18V0Zm0,3.17h2.18V12.3h-2.18V3.17Z"/><path class="cls-2" d="M104.26,12.3h-2.08v-1.31c-.4,.68-1.26,1.6-3.12,1.6-2.81,0-4.62-2.19-4.62-4.85,0-2.96,2.11-4.84,4.59-4.84,1.75,0,2.72,.93,3.06,1.46V0h2.18V12.3Zm-7.64-4.57c0,1.55,1.11,2.81,2.79,2.81,.8,0,1.51-.32,2.03-.83,.52-.52,.81-1.23,.78-2.03,0-.8-.32-1.48-.81-1.96-.5-.5-1.2-.8-1.98-.8-1.78,0-2.81,1.36-2.81,2.79v.02Z"/><path class="cls-2" d="M115.83,12.3h-2.18v-1.31c-.58,1.06-1.79,1.6-3.07,1.6-2.92,0-4.64-2.28-4.64-4.85,0-2.87,2.08-4.84,4.64-4.84,1.66,0,2.67,.88,3.07,1.61v-1.33h2.18V12.3Zm-7.71-4.52c0,1.13,.81,2.77,2.77,2.77,1.21,0,2.01-.63,2.43-1.46,.22-.4,.32-.83,.35-1.28,.02-.43-.07-.88-.25-1.28-.38-.86-1.23-1.61-2.54-1.61-1.76,0-2.76,1.43-2.76,2.84v.02Z"/><path class="cls-4" d="M39.06,31h-1.23v-1.84c-.7,1.35-2.06,2.09-3.66,2.09-2.91,0-4.64-2.26-4.64-4.72,0-2.63,1.91-4.72,4.64-4.72,1.91,0,3.22,1.11,3.66,2.13v-1.88h1.23v8.94Zm-8.31-4.45c.02,1.61,1.13,3.56,3.59,3.56,1.58,0,2.74-.91,3.22-2.18,.2-.43,.3-.93,.3-1.41,.02-.5-.08-1-.28-1.43-.5-1.23-1.69-2.14-3.27-2.14-2.06,0-3.56,1.6-3.56,3.59v.02Z"/><path class="cls-4" d="M46.93,23.04h-1.76v-.98h1.76v-3.36h1.21v3.36h1.96v.98h-1.96v7.96h-1.21v-7.96Z"/><path class="cls-4" d="M59.68,31h-1.16v-1.6c-.5,1.16-1.71,1.86-3.31,1.84-2.79-.05-3.77-1.94-3.77-4.12v-5.07h1.21v4.84c0,1.93,.86,3.22,2.88,3.21,1.86-.02,2.92-1.13,2.92-2.99v-5.05h1.23v8.94Z"/><path class="cls-4" d="M66.88,31v-12.3h1.93l4.55,10.32,4.54-10.32h1.93v12.3h-1.3l.03-10.93-4.77,10.93h-.88l-4.79-10.93,.03,10.93h-1.28Z"/><path class="cls-4" d="M91.22,31h-1.23v-1.84c-.7,1.35-2.06,2.09-3.66,2.09-2.91,0-4.64-2.26-4.64-4.72,0-2.63,1.91-4.72,4.64-4.72,1.91,0,3.22,1.11,3.66,2.13v-1.88h1.23v8.94Zm-8.31-4.45c.02,1.61,1.13,3.56,3.59,3.56,1.58,0,2.74-.91,3.22-2.18,.2-.43,.3-.93,.3-1.41,.02-.5-.08-1-.28-1.43-.5-1.23-1.69-2.14-3.27-2.14-2.06,0-3.56,1.6-3.56,3.59v.02Z"/><path class="cls-4" d="M93.6,22.06h1.16v1.46c.65-1.33,1.81-1.68,2.86-1.71v1.21h-.12c-1.73,0-2.69,1.08-2.69,3.11v4.87h-1.21v-8.94Z"/><path class="cls-4" d="M107.66,27.98c-.58,1.89-2.33,3.27-4.47,3.27-3.02,0-4.8-2.33-4.8-4.72,0-2.64,2.01-4.72,4.72-4.72,2.01,0,3.94,1.2,4.55,3.34h-1.26c-.56-1.51-1.98-2.21-3.24-2.21-1.05,0-1.78,.32-2.53,1.01-.6,.58-1.01,1.55-1.01,2.58,0,2.11,1.59,3.57,3.52,3.57,1.71-.02,2.86-1.05,3.24-2.13h1.28Z"/><path class="cls-4" d="M118.39,31h-1.23v-1.84c-.7,1.35-2.06,2.09-3.66,2.09-2.91,0-4.64-2.26-4.64-4.72,0-2.63,1.91-4.72,4.64-4.72,1.91,0,3.22,1.11,3.66,2.13v-1.88h1.23v8.94Zm-8.31-4.45c.02,1.61,1.13,3.56,3.59,3.56,1.58,0,2.74-.91,3.22-2.18,.2-.43,.3-.93,.3-1.41,.02-.5-.08-1-.28-1.43-.5-1.23-1.69-2.14-3.27-2.14-2.06,0-3.56,1.6-3.56,3.59v.02Z"/><path class="cls-4" d="M122.57,27.81h-1.26v-9.11h1.26v9.11Zm0,3.19h-1.26v-1.83h1.26v1.83Z"/><g><path class="cls-3" d="M30.7,38.39h.51v2.16c.31-.53,.88-.85,1.52-.86,1.06,0,1.93,.8,1.93,1.97s-.81,1.98-1.94,1.98c-.7,0-1.25-.34-1.53-.88v.77h-.49v-5.15Zm3.45,3.27c0-.86-.65-1.5-1.48-1.5s-1.48,.67-1.48,1.5,.59,1.5,1.46,1.5c1,0,1.5-.77,1.5-1.5h0Z"/><path class="cls-3" d="M39.08,42.27c-.24,.79-.97,1.37-1.87,1.37-1.27,0-2.01-.97-2.01-1.98,0-1.11,.84-1.98,1.98-1.98,.84,0,1.65,.5,1.91,1.4h-.53c-.24-.63-.83-.93-1.36-.93-.44,0-.75,.13-1.06,.42-.25,.24-.42,.65-.42,1.08,0,.88,.67,1.5,1.47,1.5,.72,0,1.2-.44,1.36-.89h.54Z"/><path class="cls-3" d="M41.5,40.74c0-.4-.26-.62-.64-.62-.41,0-.66,.28-.65,.61,.01,.35,.29,.5,.74,.63,.54,.15,1.13,.3,1.16,1.1,.03,.69-.53,1.19-1.24,1.19-.61,0-1.27-.38-1.28-1.17h.51c.02,.51,.4,.74,.78,.74,.43,0,.73-.32,.72-.7-.01-.42-.29-.6-.94-.79-.54-.16-.95-.38-.97-.97,0-.67,.54-1.07,1.17-1.07,.52,0,1.11,.29,1.14,1.04h-.51Z"/><path class="cls-3" d="M44.33,41.34v.51h-1.89v-.51h1.89Z"/><path class="cls-3" d="M44.84,39.8h.49v.59c.24-.47,.76-.7,1.18-.7,.39,0,.76,.12,1.02,.42,.1,.1,.22,.35,.24,.39,.06-.1,.13-.25,.27-.4,.24-.26,.61-.42,1.03-.42,.38,0,.75,.11,1.01,.38,.33,.33,.42,.73,.42,1.39v2.08h-.51v-2.06c0-.4-.06-.75-.28-1-.15-.19-.39-.31-.75-.31-.33,0-.65,.13-.82,.39-.19,.26-.22,.47-.22,.9v2.08h-.51v-2.08c.01-.42-.05-.66-.19-.89-.17-.24-.44-.39-.82-.4-.35-.01-.64,.16-.79,.38-.16,.22-.25,.5-.25,.9v2.09h-.51v-3.74Z"/><path class="cls-3" d="M51.72,41.82c.03,.94,.83,1.39,1.46,1.38,.58,0,1.04-.29,1.29-.77h.54c-.17,.4-.44,.71-.76,.91-.31,.2-.68,.31-1.06,.31-1.3,0-1.98-1.04-1.98-1.97,0-1.1,.85-1.98,1.97-1.98,.53,0,1.02,.19,1.37,.53,.43,.42,.64,.99,.58,1.59h-3.41Zm2.9-.41c-.03-.65-.67-1.29-1.44-1.27-.81,0-1.41,.59-1.45,1.27h2.89Z"/><path class="cls-3" d="M59.6,43.54h-.49v-.77c-.26,.49-.76,.88-1.54,.88-1.2,0-1.93-.93-1.93-1.98,0-1.11,.81-1.97,1.93-1.97,.82,0,1.36,.47,1.53,.86v-2.16h.51v5.15Zm-3.46-1.87c0,.75,.53,1.5,1.5,1.5,.42,0,.8-.17,1.06-.44,.27-.28,.43-.66,.42-1.08,0-.42-.16-.79-.43-1.05-.26-.27-.64-.43-1.06-.43-.86,0-1.5,.65-1.5,1.5h0Z"/><path class="cls-3" d="M60.62,38.39h.51v.72h-.51v-.72Zm0,1.41h.51v3.74h-.51v-3.74Z"/><path class="cls-3" d="M65.89,43.54h-.52v-.77c-.29,.56-.86,.88-1.53,.88-1.22,0-1.94-.95-1.94-1.98,0-1.1,.8-1.98,1.94-1.98,.8,0,1.35,.47,1.53,.89v-.79h.52v3.74Zm-3.48-1.86c0,.67,.47,1.49,1.5,1.49,.66,0,1.15-.38,1.35-.91,.08-.18,.12-.39,.12-.59,0-.21-.03-.42-.12-.6-.21-.52-.71-.9-1.37-.9-.86,0-1.49,.67-1.49,1.5h0Z"/><path class="cls-3" d="M67.67,43.54h-.54v-.77h.54v.77Z"/><path class="cls-3" d="M72.55,42.27c-.24,.79-.97,1.37-1.87,1.37-1.27,0-2.01-.97-2.01-1.98,0-1.11,.84-1.98,1.98-1.98,.84,0,1.65,.5,1.91,1.4h-.53c-.24-.63-.83-.93-1.36-.93-.44,0-.75,.13-1.06,.42-.25,.24-.42,.65-.42,1.08,0,.88,.67,1.5,1.47,1.5,.72,0,1.2-.44,1.36-.89h.54Z"/><path class="cls-3" d="M73.06,41.66c0-1.04,.78-1.97,1.98-1.97s1.99,.93,1.99,1.98-.78,1.97-1.99,1.97-1.98-.92-1.98-1.97h0Zm.51,0c0,.85,.65,1.49,1.48,1.49s1.47-.64,1.47-1.5-.64-1.5-1.47-1.5-1.48,.64-1.48,1.5h0Z"/><path class="cls-3" d="M77.8,39.8h.49v.59c.24-.47,.76-.7,1.18-.7,.39,0,.76,.12,1.02,.42,.1,.1,.22,.35,.24,.39,.06-.1,.13-.25,.27-.4,.24-.26,.61-.42,1.03-.42,.38,0,.75,.11,1.01,.38,.33,.33,.42,.73,.42,1.39v2.08h-.51v-2.06c0-.4-.06-.75-.28-1-.15-.19-.39-.31-.75-.31-.33,0-.65,.13-.82,.39-.19,.26-.22,.47-.22,.9v2.08h-.52v-2.08c.01-.42-.05-.66-.19-.89-.17-.24-.44-.39-.82-.4-.35-.01-.64,.16-.79,.38-.16,.22-.25,.5-.25,.9v2.09h-.51v-3.74Z"/></g></g></g></svg>