<?xml version="1.0" encoding="UTF-8"?><svg id="Layer_2" xmlns="http://www.w3.org/2000/svg" viewBox="0 0 93.03 31.25"><defs><style>.cls-1{fill:#ce202f;}.cls-2{fill:#231f20;}</style></defs><g id="Layer_2-2"><g><path class="cls-1" d="M.85,3.17H3.09v2.46H.85V3.17Zm0,3.72H3.09V15.47H.85V6.9Z"/><path class="cls-1" d="M5.73,0h3.91c1.53,0,3.75,.15,5.22,2.13,.9,1.13,1.26,2.49,1.26,4,0,3.47-1.83,6.17-6.3,6.17H5.73V0Zm2.48,10.12h1.75c2.66,0,3.69-1.74,3.69-3.96,0-.96-.25-1.99-.83-2.76-.52-.66-1.35-1.23-2.84-1.23h-1.76v7.94Z"/><path class="cls-1" d="M27.21,12.3h-2.18v-1.31c-.58,1.06-1.79,1.6-3.07,1.6-2.92,0-4.64-2.28-4.64-4.85,0-2.87,2.08-4.84,4.64-4.84,1.66,0,2.67,.88,3.07,1.61v-1.33h2.18V12.3Zm-7.71-4.52c0,1.13,.81,2.77,2.77,2.77,1.21,0,2.01-.63,2.43-1.46,.22-.4,.32-.83,.35-1.28,.02-.43-.07-.88-.25-1.28-.38-.86-1.23-1.61-2.54-1.61-1.76,0-2.76,1.43-2.76,2.84v.02Z"/><path class="cls-1" d="M29.37,0h2.18V12.3h-2.18V0Z"/><path class="cls-1" d="M35.3,8.46c.1,1.46,1.4,2.28,2.64,2.26,1.06,0,1.78-.48,2.19-1.23h2.24c-.43,1.01-1.08,1.78-1.84,2.29-.76,.53-1.66,.8-2.61,.8-2.81,0-4.82-2.28-4.82-4.82s2.03-4.87,4.79-4.87c1.36,0,2.56,.52,3.41,1.4,1.11,1.15,1.53,2.58,1.35,4.17h-7.34Zm5.2-1.66c-.08-.86-1-2.08-2.59-2.06-1.61,0-2.49,1.16-2.58,2.06h5.17Z"/><path class="cls-1" d="M48.45,0h2.56l3.07,9.34L57.19,0h2.56l-4.4,12.3h-2.51L48.45,0Z"/><path class="cls-1" d="M61.06,0h2.18V1.94h-2.18V0Zm0,3.17h2.18V12.3h-2.18V3.17Z"/><path class="cls-1" d="M74.71,12.3h-2.08v-1.31c-.4,.68-1.26,1.6-3.12,1.6-2.81,0-4.62-2.19-4.62-4.85,0-2.96,2.11-4.84,4.59-4.84,1.75,0,2.72,.93,3.06,1.46V0h2.18V12.3Zm-7.64-4.57c0,1.55,1.11,2.81,2.79,2.81,.8,0,1.51-.32,2.03-.83,.52-.52,.81-1.23,.78-2.03,0-.8-.32-1.48-.81-1.96-.5-.5-1.2-.8-1.98-.8-1.78,0-2.81,1.36-2.81,2.79v.02Z"/><path class="cls-1" d="M86.29,12.3h-2.18v-1.31c-.58,1.06-1.79,1.6-3.07,1.6-2.92,0-4.64-2.28-4.64-4.85,0-2.87,2.08-4.84,4.64-4.84,1.66,0,2.67,.88,3.07,1.61v-1.33h2.18V12.3Zm-7.71-4.52c0,1.13,.81,2.77,2.77,2.77,1.21,0,2.01-.63,2.43-1.46,.22-.4,.32-.83,.35-1.28,.02-.43-.07-.88-.25-1.28-.38-.86-1.23-1.61-2.54-1.61-1.76,0-2.76,1.43-2.76,2.84v.02Z"/><path class="cls-2" d="M9.52,31h-1.23v-1.84c-.7,1.35-2.06,2.09-3.66,2.09-2.91,0-4.64-2.26-4.64-4.72,0-2.63,1.91-4.72,4.64-4.72,1.91,0,3.22,1.11,3.66,2.13v-1.88h1.23v8.94ZM1.21,26.55c.02,1.61,1.13,3.56,3.59,3.56,1.58,0,2.74-.91,3.22-2.18,.2-.43,.3-.93,.3-1.41,.02-.5-.08-1-.28-1.43-.5-1.23-1.69-2.14-3.27-2.14-2.06,0-3.56,1.6-3.56,3.59v.02Z"/><path class="cls-2" d="M17.39,23.04h-1.76v-.98h1.76v-3.36h1.21v3.36h1.96v.98h-1.96v7.96h-1.21v-7.96Z"/><path class="cls-2" d="M30.13,31h-1.16v-1.6c-.5,1.16-1.71,1.86-3.31,1.84-2.79-.05-3.77-1.94-3.77-4.12v-5.07h1.21v4.84c0,1.93,.86,3.22,2.88,3.21,1.86-.02,2.92-1.13,2.92-2.99v-5.05h1.23v8.94Z"/><path class="cls-2" d="M37.34,31v-12.3h1.93l4.55,10.32,4.54-10.32h1.93v12.3h-1.3l.03-10.93-4.77,10.93h-.88l-4.79-10.93,.03,10.93h-1.28Z"/><path class="cls-2" d="M61.67,31h-1.23v-1.84c-.7,1.35-2.06,2.09-3.66,2.09-2.91,0-4.64-2.26-4.64-4.72,0-2.63,1.91-4.72,4.64-4.72,1.91,0,3.22,1.11,3.66,2.13v-1.88h1.23v8.94Zm-8.31-4.45c.02,1.61,1.13,3.56,3.59,3.56,1.58,0,2.74-.91,3.22-2.18,.2-.43,.3-.93,.3-1.41,.02-.5-.08-1-.28-1.43-.5-1.23-1.69-2.14-3.27-2.14-2.06,0-3.56,1.6-3.56,3.59v.02Z"/><path class="cls-2" d="M64.06,22.06h1.16v1.46c.65-1.33,1.81-1.68,2.86-1.71v1.21h-.12c-1.73,0-2.69,1.08-2.69,3.11v4.87h-1.21v-8.94Z"/><path class="cls-2" d="M78.12,27.98c-.58,1.89-2.33,3.27-4.47,3.27-3.02,0-4.8-2.33-4.8-4.72,0-2.64,2.01-4.72,4.72-4.72,2.01,0,3.94,1.2,4.55,3.34h-1.26c-.56-1.51-1.98-2.21-3.24-2.21-1.05,0-1.78,.32-2.53,1.01-.6,.58-1.01,1.55-1.01,2.58,0,2.11,1.59,3.57,3.52,3.57,1.71-.02,2.86-1.05,3.24-2.13h1.28Z"/><path class="cls-2" d="M88.85,31h-1.23v-1.84c-.7,1.35-2.06,2.09-3.66,2.09-2.91,0-4.64-2.26-4.64-4.72,0-2.63,1.91-4.72,4.64-4.72,1.91,0,3.22,1.11,3.66,2.13v-1.88h1.23v8.94Zm-8.31-4.45c.02,1.61,1.13,3.56,3.59,3.56,1.58,0,2.74-.91,3.22-2.18,.2-.43,.3-.93,.3-1.41,.02-.5-.08-1-.28-1.43-.5-1.23-1.69-2.14-3.27-2.14-2.06,0-3.56,1.6-3.56,3.59v.02Z"/><path class="cls-2" d="M93.03,27.81h-1.26v-9.11h1.26v9.11Zm0,3.19h-1.26v-1.83h1.26v1.83Z"/></g></g></svg>