<?xml version="1.0" encoding="UTF-8"?><svg id="Layer_2" xmlns="http://www.w3.org/2000/svg" xmlns:xlink="http://www.w3.org/1999/xlink" viewBox="0 0 134.82 106.59"><defs><style>.cls-1,.cls-2{fill:none;}.cls-3{clip-path:url(#clippath);}.cls-4{fill:#e6e7e8;}.cls-5,.cls-6{fill:#fff;}.cls-7{fill:#ce202f;}.cls-8{fill:#231f20;}.cls-2{stroke:#fff;stroke-width:.05px;}.cls-2,.cls-6{stroke-miterlimit:10;}.cls-9{clip-path:url(#clippath-1);}.cls-6{stroke:#cf2031;stroke-width:.83px;}</style><clipPath id="clippath"><path class="cls-1" d="M79.56,25.43h40.96V58.35c0,3.81,3.11,6.9,6.94,6.9s6.94-3.09,6.94-6.9V19.36c0-12.83-12.34-22.1-24.76-18.61l-32.38,11.23c-2.8,.97-4.67,3.59-4.67,6.53,0,3.82,3.12,6.92,6.97,6.92"/></clipPath><clipPath id="clippath-1"><path class="cls-1" d="M120.52,32.52c.94-.47,2.09-.47,3.06,.07,1.42,.79,2.04,2.52,1.43,4.02l-4.49,10.92v10.83c0,1.11,.26,2.15,.73,3.08,.61,.65,1.31,1.23,2.09,1.71,2.3,1.43,4.98,1.81,7.49,1.24,2.13-1.18,3.57-3.44,3.57-6.03v-5.35l-3.08,3.65c-1.19,1.36-3.01,1.69-4.42,.82-1.46-.91-2.06-2.72-1.43-4.31l5.77-14.03v-.02c1.87-4.61-.01-9.93-4.38-12.36-1.99-1.11-4.22-1.47-6.35-1.16v6.93Z"/></clipPath></defs><g id="Layer_2-2"><g><path class="cls-6" d="M120.99,12.86l-108.03-.09c-6.53,.48-11.57,5.92-11.57,12.46v58.08c0,7.4,6.39,13.17,13.75,12.43l108.03,.06c6.38-.64,11.24-6.02,11.24-12.43V25.32c0-7.26-6.17-13-13.42-12.46Zm-.97,70.45l-104.25,.12V25.44l104.25-.12v57.99Z"/><g><path class="cls-7" d="M72.59,18.51h0c0,3.82,3.12,6.92,6.97,6.92h40.96V58.35c0,3.81,3.11,6.9,6.94,6.9h0c3.83,0,6.94-3.09,6.94-6.9V19.35h0c0-12.83-12.34-22.1-24.76-18.61l-32.38,11.23c-2.8,.97-4.67,3.59-4.67,6.53Z"/><g><path class="cls-8" d="M104.39,19.08c0-.39-.3-.72-.72-.72-.44,0-.72,.34-.72,.73,0,.4,.28,.73,.71,.73,.46,0,.73-.37,.73-.73h0Zm-1.98-2h.57v1.12c.23-.29,.58-.37,.79-.37,.56,0,1.19,.41,1.19,1.24,0,.8-.56,1.27-1.21,1.27-.37,0-.66-.18-.79-.41v.34h-.55v-3.19Z"/><path class="cls-8" d="M107.76,19.41c-.13,.53-.61,.93-1.22,.93-.75,0-1.27-.58-1.27-1.26,0-.7,.54-1.25,1.25-1.25,.6,0,1.11,.37,1.24,.95h-.58c-.1-.25-.33-.43-.64-.43-.21,0-.37,.07-.51,.2-.12,.13-.2,.32-.2,.53,0,.43,.3,.73,.7,.73,.36,0,.55-.21,.64-.4h.58Z"/><path class="cls-8" d="M109.21,18.54c0-.13-.07-.25-.29-.25-.19,0-.28,.12-.28,.24,0,.15,.18,.23,.4,.3,.38,.1,.79,.22,.8,.72,0,.49-.4,.8-.9,.8-.37,0-.87-.19-.91-.76h.57c.02,.25,.24,.31,.35,.31,.18,0,.33-.12,.33-.28,0-.2-.18-.26-.62-.41-.32-.1-.58-.28-.59-.62,0-.47,.39-.75,.85-.75,.32,0,.8,.14,.85,.71h-.56Z"/><path class="cls-8" d="M110.19,17.93h.42v.33c.1-.2,.37-.4,.72-.4,.22,0,.44,.06,.61,.25,.06,.06,.13,.19,.15,.23,.04-.07,.09-.15,.17-.23,.15-.15,.37-.25,.62-.25,.22,0,.46,.06,.63,.24,.21,.21,.26,.44,.26,.88v1.29h-.45v-1.27c0-.19-.03-.39-.13-.52-.08-.12-.21-.19-.42-.19-.2,0-.37,.08-.46,.22-.1,.15-.11,.28-.11,.47v1.29h-.46v-1.29c0-.19-.02-.34-.1-.47-.09-.14-.23-.23-.45-.23-.21,0-.37,.1-.45,.23-.09,.12-.13,.29-.13,.48v1.28h-.45v-2.34Z"/><path class="cls-8" d="M116.13,18.89c-.02-.31-.33-.66-.78-.65-.46,0-.76,.33-.78,.65h1.56Zm-1.57,.35c.02,.47,.44,.72,.79,.72,.32,0,.55-.15,.68-.4h.47c-.11,.26-.28,.45-.48,.58-.2,.13-.43,.2-.67,.2-.77,0-1.25-.62-1.25-1.24,0-.67,.53-1.24,1.24-1.24,.34,0,.65,.13,.87,.34,.28,.28,.39,.65,.36,1.04h-2.02Z"/><path class="cls-8" d="M117.25,19.1c0,.43,.31,.82,.83,.82,.23,0,.44-.09,.59-.25,.15-.15,.24-.36,.23-.59,0-.23-.09-.43-.24-.58-.15-.15-.35-.23-.58-.23-.5,0-.83,.38-.83,.82h0Zm2.07,1.18h-.43v-.41c-.13,.24-.39,.48-.88,.48-.74,0-1.21-.57-1.21-1.24,0-.73,.53-1.24,1.2-1.24,.48,0,.78,.27,.87,.45v-1.23h.45v3.19Z"/><path class="cls-8" d="M119.83,17.93h.45v2.34h-.45v-2.34Zm0-.84h.45v.47h-.45v-.47Z"/><path class="cls-8" d="M121.1,19.11c0,.35,.25,.81,.82,.81,.36,0,.62-.2,.73-.47,.05-.11,.08-.23,.08-.35s-.02-.24-.07-.35c-.11-.27-.38-.48-.75-.48-.49,0-.82,.39-.82,.83h0Zm2.09,1.17h-.45v-.41c-.16,.31-.5,.48-.88,.48-.76,0-1.21-.59-1.21-1.24,0-.72,.52-1.24,1.21-1.24,.47,0,.77,.26,.88,.48v-.41h.45v2.34Z"/><path class="cls-5" d="M105.22,15.32c-.21,0-.42-.07-.59-.21-.39-.33-.44-.9-.12-1.29l6.96-8.28c.85-1.01,2.3-1.27,3.45-.63,1.2,.67,1.72,2.13,1.2,3.39h0l-1.58,3.86c-.17,.44-.01,.93,.39,1.18,.39,.24,.88,.15,1.21-.22l3.06-3.62c.33-.39,.91-.44,1.3-.11,.39,.33,.44,.9,.11,1.29l-3.06,3.63h0c-.92,1.07-2.43,1.32-3.59,.6-1.16-.72-1.64-2.16-1.13-3.43h0l1.58-3.86c.17-.41,0-.89-.39-1.1-.38-.21-.85-.12-1.12,.21l-6.96,8.28c-.18,.22-.45,.33-.71,.33"/></g><g class="cls-3"><path class="cls-2" d="M91.54,64.68c-.76,0-1.53-.26-2.16-.78-1.43-1.18-1.62-3.29-.42-4.71l25.36-30.15c3.08-3.67,8.36-4.63,12.56-2.3,4.37,2.43,6.25,7.74,4.39,12.36v.02l-5.78,14.03c-.64,1.59-.04,3.4,1.43,4.31,1.41,.87,3.22,.54,4.42-.82l11.14-13.2c1.19-1.42,3.32-1.6,4.74-.41,1.43,1.19,1.61,3.3,.42,4.71l-11.16,13.22-.03,.04c-3.36,3.85-8.86,4.75-13.09,2.13-4.24-2.63-5.97-7.88-4.11-12.49v-.02l5.78-14.03c.6-1.5-.01-3.23-1.43-4.02-1.37-.76-3.09-.45-4.09,.75l-25.36,30.15c-.67,.79-1.62,1.2-2.59,1.2Z"/></g><g class="cls-9"><path class="cls-5" d="M121.56,25.7s.03-.07,.07-.07,.07,.03,.07,.07h0s-.03,.07-.07,.07-.07-.03-.07-.07"/><path class="cls-2" d="M121.56,25.7s.03-.07,.07-.07,.07,.03,.07,.07h0s-.03,.07-.07,.07-.07-.03-.07-.07"/><path class="cls-5" d="M121.56,27.08s.03-.07,.07-.07,.07,.03,.07,.07h0s-.03,.07-.07,.07-.07-.03-.07-.07m0,1.37s.03-.07,.07-.07,.07,.03,.07,.07h0s-.03,.07-.07,.07-.07-.03-.07-.07m0,1.37s.03-.07,.07-.07,.07,.03,.07,.07h0s-.03,.07-.07,.07-.07-.03-.07-.07m0,1.37s.03-.07,.07-.07,.07,.03,.07,.07h0s-.03,.07-.07,.07-.07-.03-.07-.07m0,1.37s.03-.07,.07-.07,.07,.03,.07,.07h0s-.03,.07-.07,.07-.07-.03-.07-.07"/><path class="cls-2" d="M121.56,27.08s.03-.07,.07-.07,.07,.03,.07,.07h0s-.03,.07-.07,.07-.07-.03-.07-.07m0,1.37s.03-.07,.07-.07,.07,.03,.07,.07h0s-.03,.07-.07,.07-.07-.03-.07-.07m0,1.37s.03-.07,.07-.07,.07,.03,.07,.07h0s-.03,.07-.07,.07-.07-.03-.07-.07m0,1.37s.03-.07,.07-.07,.07,.03,.07,.07h0s-.03,.07-.07,.07-.07-.03-.07-.07m0,1.37s.03-.07,.07-.07,.07,.03,.07,.07h0s-.03,.07-.07,.07-.07-.03-.07-.07"/><path class="cls-5" d="M121.56,33.94s.03-.07,.07-.07,.07,.03,.07,.07h0s-.03,.07-.07,.07-.07-.03-.07-.07"/><path class="cls-2" d="M121.56,33.94s.03-.07,.07-.07,.07,.03,.07,.07h0s-.03,.07-.07,.07-.07-.03-.07-.07"/><path class="cls-5" d="M120.05,25.7s.03-.07,.07-.07,.07,.03,.07,.07h0s-.03,.07-.07,.07-.07-.03-.07-.07"/><path class="cls-2" d="M120.05,25.7s.03-.07,.07-.07,.07,.03,.07,.07h0s-.03,.07-.07,.07-.07-.03-.07-.07"/><path class="cls-5" d="M120.05,27.08s.03-.07,.07-.07,.07,.03,.07,.07h0s-.03,.07-.07,.07-.07-.03-.07-.07m0,1.37s.03-.07,.07-.07,.07,.03,.07,.07h0s-.03,.07-.07,.07-.07-.03-.07-.07m0,1.37s.03-.07,.07-.07,.07,.03,.07,.07h0s-.03,.07-.07,.07-.07-.03-.07-.07m0,1.37s.03-.07,.07-.07,.07,.03,.07,.07h0s-.03,.07-.07,.07-.07-.03-.07-.07m0,1.37s.03-.07,.07-.07,.07,.03,.07,.07h0s-.03,.07-.07,.07-.07-.03-.07-.07"/><path class="cls-2" d="M120.05,27.08s.03-.07,.07-.07,.07,.03,.07,.07h0s-.03,.07-.07,.07-.07-.03-.07-.07m0,1.37s.03-.07,.07-.07,.07,.03,.07,.07h0s-.03,.07-.07,.07-.07-.03-.07-.07m0,1.37s.03-.07,.07-.07,.07,.03,.07,.07h0s-.03,.07-.07,.07-.07-.03-.07-.07m0,1.37s.03-.07,.07-.07,.07,.03,.07,.07h0s-.03,.07-.07,.07-.07-.03-.07-.07m0,1.37s.03-.07,.07-.07,.07,.03,.07,.07h0s-.03,.07-.07,.07-.07-.03-.07-.07"/><path class="cls-5" d="M120.05,33.94s.03-.07,.07-.07,.07,.03,.07,.07h0s-.03,.07-.07,.07-.07-.03-.07-.07"/><path class="cls-2" d="M120.05,33.94s.03-.07,.07-.07,.07,.03,.07,.07h0s-.03,.07-.07,.07-.07-.03-.07-.07"/><path class="cls-5" d="M118.54,25.7s.03-.07,.07-.07,.07,.03,.07,.07h0s-.03,.07-.07,.07-.07-.03-.07-.07"/><path class="cls-2" d="M118.54,25.7s.03-.07,.07-.07,.07,.03,.07,.07h0s-.03,.07-.07,.07-.07-.03-.07-.07"/><path class="cls-5" d="M118.54,27.08s.03-.07,.07-.07,.07,.03,.07,.07h0s-.03,.07-.07,.07-.07-.03-.07-.07m0,1.37s.03-.07,.07-.07,.07,.03,.07,.07h0s-.03,.07-.07,.07-.07-.03-.07-.07m0,1.37s.03-.07,.07-.07,.07,.03,.07,.07h0s-.03,.07-.07,.07-.07-.03-.07-.07m0,1.37s.03-.07,.07-.07,.07,.03,.07,.07h0s-.03,.07-.07,.07-.07-.03-.07-.07m0,1.37s.03-.07,.07-.07,.07,.03,.07,.07h0s-.03,.07-.07,.07-.07-.03-.07-.07"/><path class="cls-2" d="M118.54,27.08s.03-.07,.07-.07,.07,.03,.07,.07h0s-.03,.07-.07,.07-.07-.03-.07-.07m0,1.37s.03-.07,.07-.07,.07,.03,.07,.07h0s-.03,.07-.07,.07-.07-.03-.07-.07m0,1.37s.03-.07,.07-.07,.07,.03,.07,.07h0s-.03,.07-.07,.07-.07-.03-.07-.07m0,1.37s.03-.07,.07-.07,.07,.03,.07,.07h0s-.03,.07-.07,.07-.07-.03-.07-.07m0,1.37s.03-.07,.07-.07,.07,.03,.07,.07h0s-.03,.07-.07,.07-.07-.03-.07-.07"/><path class="cls-5" d="M118.54,33.94s.03-.07,.07-.07,.07,.03,.07,.07h0s-.03,.07-.07,.07-.07-.03-.07-.07"/><path class="cls-2" d="M118.54,33.94s.03-.07,.07-.07,.07,.03,.07,.07h0s-.03,.07-.07,.07-.07-.03-.07-.07"/><path class="cls-5" d="M125.94,25.67s.03-.07,.07-.07,.07,.03,.07,.07h0s-.03,.07-.07,.07-.07-.03-.07-.07"/><path class="cls-2" d="M125.94,25.67s.03-.07,.07-.07,.07,.03,.07,.07h0s-.03,.07-.07,.07-.07-.03-.07-.07"/><path class="cls-5" d="M125.94,27.04s.03-.07,.07-.07,.07,.03,.07,.07h0s-.03,.07-.07,.07-.07-.03-.07-.07m0,1.37s.03-.07,.07-.07,.07,.03,.07,.07h0s-.03,.07-.07,.07-.07-.03-.07-.07m0,1.37s.03-.07,.07-.07,.07,.03,.07,.07h0s-.03,.07-.07,.07-.07-.03-.07-.07m0,1.37s.03-.07,.07-.07,.07,.03,.07,.07h0s-.03,.07-.07,.07-.07-.03-.07-.07m0,1.37s.03-.07,.07-.07,.07,.03,.07,.07h0s-.03,.07-.07,.07-.07-.03-.07-.07"/><path class="cls-2" d="M125.94,27.04s.03-.07,.07-.07,.07,.03,.07,.07h0s-.03,.07-.07,.07-.07-.03-.07-.07m0,1.37s.03-.07,.07-.07,.07,.03,.07,.07h0s-.03,.07-.07,.07-.07-.03-.07-.07m0,1.37s.03-.07,.07-.07,.07,.03,.07,.07h0s-.03,.07-.07,.07-.07-.03-.07-.07m0,1.37s.03-.07,.07-.07,.07,.03,.07,.07h0s-.03,.07-.07,.07-.07-.03-.07-.07m0,1.37s.03-.07,.07-.07,.07,.03,.07,.07h0s-.03,.07-.07,.07-.07-.03-.07-.07"/><path class="cls-5" d="M125.94,33.9s.03-.07,.07-.07,.07,.03,.07,.07h0s-.03,.07-.07,.07-.07-.03-.07-.07"/><path class="cls-2" d="M125.94,33.9s.03-.07,.07-.07,.07,.03,.07,.07h0s-.03,.07-.07,.07-.07-.03-.07-.07"/><path class="cls-5" d="M124.43,25.67s.03-.07,.07-.07,.07,.03,.07,.07h0s-.03,.07-.07,.07-.07-.03-.07-.07"/><path class="cls-2" d="M124.43,25.67s.03-.07,.07-.07,.07,.03,.07,.07h0s-.03,.07-.07,.07-.07-.03-.07-.07"/><path class="cls-5" d="M124.43,27.04s.03-.07,.07-.07,.07,.03,.07,.07h0s-.03,.07-.07,.07-.07-.03-.07-.07m0,1.37s.03-.07,.07-.07,.07,.03,.07,.07h0s-.03,.07-.07,.07-.07-.03-.07-.07m0,1.37s.03-.07,.07-.07,.07,.03,.07,.07h0s-.03,.07-.07,.07-.07-.03-.07-.07m0,1.37s.03-.07,.07-.07,.07,.03,.07,.07h0s-.03,.07-.07,.07-.07-.03-.07-.07m0,1.37s.03-.07,.07-.07,.07,.03,.07,.07h0s-.03,.07-.07,.07-.07-.03-.07-.07"/><path class="cls-2" d="M124.43,27.04s.03-.07,.07-.07,.07,.03,.07,.07h0s-.03,.07-.07,.07-.07-.03-.07-.07m0,1.37s.03-.07,.07-.07,.07,.03,.07,.07h0s-.03,.07-.07,.07-.07-.03-.07-.07m0,1.37s.03-.07,.07-.07,.07,.03,.07,.07h0s-.03,.07-.07,.07-.07-.03-.07-.07m0,1.37s.03-.07,.07-.07,.07,.03,.07,.07h0s-.03,.07-.07,.07-.07-.03-.07-.07m0,1.37s.03-.07,.07-.07,.07,.03,.07,.07h0s-.03,.07-.07,.07-.07-.03-.07-.07"/><path class="cls-5" d="M124.43,33.9s.03-.07,.07-.07,.07,.03,.07,.07h0s-.03,.07-.07,.07-.07-.03-.07-.07"/><path class="cls-2" d="M124.43,33.9s.03-.07,.07-.07,.07,.03,.07,.07h0s-.03,.07-.07,.07-.07-.03-.07-.07"/><path class="cls-5" d="M122.92,25.67s.03-.07,.07-.07,.07,.03,.07,.07h0s-.03,.07-.07,.07-.07-.03-.07-.07"/><path class="cls-2" d="M122.92,25.67s.03-.07,.07-.07,.07,.03,.07,.07h0s-.03,.07-.07,.07-.07-.03-.07-.07"/><path class="cls-5" d="M122.92,27.04s.03-.07,.07-.07,.07,.03,.07,.07h0s-.03,.07-.07,.07-.07-.03-.07-.07m0,1.37s.03-.07,.07-.07,.07,.03,.07,.07h0s-.03,.07-.07,.07-.07-.03-.07-.07m0,1.37s.03-.07,.07-.07,.07,.03,.07,.07h0s-.03,.07-.07,.07-.07-.03-.07-.07m0,1.37s.03-.07,.07-.07,.07,.03,.07,.07h0s-.03,.07-.07,.07-.07-.03-.07-.07m0,1.37s.03-.07,.07-.07,.07,.03,.07,.07h0s-.03,.07-.07,.07-.07-.03-.07-.07"/><path class="cls-2" d="M122.92,27.04s.03-.07,.07-.07,.07,.03,.07,.07h0s-.03,.07-.07,.07-.07-.03-.07-.07m0,1.37s.03-.07,.07-.07,.07,.03,.07,.07h0s-.03,.07-.07,.07-.07-.03-.07-.07m0,1.37s.03-.07,.07-.07,.07,.03,.07,.07h0s-.03,.07-.07,.07-.07-.03-.07-.07m0,1.37s.03-.07,.07-.07,.07,.03,.07,.07h0s-.03,.07-.07,.07-.07-.03-.07-.07m0,1.37s.03-.07,.07-.07,.07,.03,.07,.07h0s-.03,.07-.07,.07-.07-.03-.07-.07"/><path class="cls-5" d="M122.92,33.9s.03-.07,.07-.07,.07,.03,.07,.07h0s-.03,.07-.07,.07-.07-.03-.07-.07"/><path class="cls-2" d="M122.92,33.9s.03-.07,.07-.07,.07,.03,.07,.07h0s-.03,.07-.07,.07-.07-.03-.07-.07"/><path class="cls-5" d="M130.42,25.67s.03-.07,.07-.07,.07,.03,.07,.07h0s-.03,.07-.07,.07-.07-.03-.07-.07"/><path class="cls-2" d="M130.42,25.67s.03-.07,.07-.07,.07,.03,.07,.07h0s-.03,.07-.07,.07-.07-.03-.07-.07"/><path class="cls-5" d="M130.42,27.05s.03-.07,.07-.07,.07,.03,.07,.07h0s-.03,.07-.07,.07-.07-.03-.07-.07m0,1.37s.03-.07,.07-.07,.07,.03,.07,.07h0s-.03,.07-.07,.07-.07-.03-.07-.07m0,1.37s.03-.07,.07-.07,.07,.03,.07,.07h0s-.03,.07-.07,.07-.07-.03-.07-.07m0,1.37s.03-.07,.07-.07,.07,.03,.07,.07h0s-.03,.07-.07,.07-.07-.03-.07-.07m0,1.37s.03-.07,.07-.07,.07,.03,.07,.07h0s-.03,.07-.07,.07-.07-.03-.07-.07"/><path class="cls-2" d="M130.42,27.05s.03-.07,.07-.07,.07,.03,.07,.07h0s-.03,.07-.07,.07-.07-.03-.07-.07m0,1.37s.03-.07,.07-.07,.07,.03,.07,.07h0s-.03,.07-.07,.07-.07-.03-.07-.07m0,1.37s.03-.07,.07-.07,.07,.03,.07,.07h0s-.03,.07-.07,.07-.07-.03-.07-.07m0,1.37s.03-.07,.07-.07,.07,.03,.07,.07h0s-.03,.07-.07,.07-.07-.03-.07-.07m0,1.37s.03-.07,.07-.07,.07,.03,.07,.07h0s-.03,.07-.07,.07-.07-.03-.07-.07"/><path class="cls-5" d="M130.42,33.91s.03-.07,.07-.07,.07,.03,.07,.07h0s-.03,.07-.07,.07-.07-.03-.07-.07"/><path class="cls-2" d="M130.42,33.91s.03-.07,.07-.07,.07,.03,.07,.07h0s-.03,.07-.07,.07-.07-.03-.07-.07"/><path class="cls-5" d="M128.91,25.67s.03-.07,.07-.07,.07,.03,.07,.07h0s-.03,.07-.07,.07-.07-.03-.07-.07"/><path class="cls-2" d="M128.91,25.67s.03-.07,.07-.07,.07,.03,.07,.07h0s-.03,.07-.07,.07-.07-.03-.07-.07"/><path class="cls-5" d="M128.91,27.05s.03-.07,.07-.07,.07,.03,.07,.07h0s-.03,.07-.07,.07-.07-.03-.07-.07m0,1.37s.03-.07,.07-.07,.07,.03,.07,.07h0s-.03,.07-.07,.07-.07-.03-.07-.07m0,1.37s.03-.07,.07-.07,.07,.03,.07,.07h0s-.03,.07-.07,.07-.07-.03-.07-.07m0,1.37s.03-.07,.07-.07,.07,.03,.07,.07h0s-.03,.07-.07,.07-.07-.03-.07-.07m0,1.37s.03-.07,.07-.07,.07,.03,.07,.07h0s-.03,.07-.07,.07-.07-.03-.07-.07"/><path class="cls-2" d="M128.91,27.05s.03-.07,.07-.07,.07,.03,.07,.07h0s-.03,.07-.07,.07-.07-.03-.07-.07m0,1.37s.03-.07,.07-.07,.07,.03,.07,.07h0s-.03,.07-.07,.07-.07-.03-.07-.07m0,1.37s.03-.07,.07-.07,.07,.03,.07,.07h0s-.03,.07-.07,.07-.07-.03-.07-.07m0,1.37s.03-.07,.07-.07,.07,.03,.07,.07h0s-.03,.07-.07,.07-.07-.03-.07-.07m0,1.37s.03-.07,.07-.07,.07,.03,.07,.07h0s-.03,.07-.07,.07-.07-.03-.07-.07"/><path class="cls-5" d="M128.91,33.91s.03-.07,.07-.07,.07,.03,.07,.07h0s-.03,.07-.07,.07-.07-.03-.07-.07"/><path class="cls-2" d="M128.91,33.91s.03-.07,.07-.07,.07,.03,.07,.07h0s-.03,.07-.07,.07-.07-.03-.07-.07"/><path class="cls-5" d="M127.4,25.67s.03-.07,.07-.07,.07,.03,.07,.07h0s-.03,.07-.07,.07-.07-.03-.07-.07"/><path class="cls-2" d="M127.4,25.67s.03-.07,.07-.07,.07,.03,.07,.07h0s-.03,.07-.07,.07-.07-.03-.07-.07"/><path class="cls-5" d="M127.4,27.05s.03-.07,.07-.07,.07,.03,.07,.07h0s-.03,.07-.07,.07-.07-.03-.07-.07m0,1.37s.03-.07,.07-.07,.07,.03,.07,.07h0s-.03,.07-.07,.07-.07-.03-.07-.07m0,1.37s.03-.07,.07-.07,.07,.03,.07,.07h0s-.03,.07-.07,.07-.07-.03-.07-.07m0,1.37s.03-.07,.07-.07,.07,.03,.07,.07h0s-.03,.07-.07,.07-.07-.03-.07-.07m0,1.37s.03-.07,.07-.07,.07,.03,.07,.07h0s-.03,.07-.07,.07-.07-.03-.07-.07"/><path class="cls-2" d="M127.4,27.05s.03-.07,.07-.07,.07,.03,.07,.07h0s-.03,.07-.07,.07-.07-.03-.07-.07m0,1.37s.03-.07,.07-.07,.07,.03,.07,.07h0s-.03,.07-.07,.07-.07-.03-.07-.07m0,1.37s.03-.07,.07-.07,.07,.03,.07,.07h0s-.03,.07-.07,.07-.07-.03-.07-.07m0,1.37s.03-.07,.07-.07,.07,.03,.07,.07h0s-.03,.07-.07,.07-.07-.03-.07-.07m0,1.37s.03-.07,.07-.07,.07,.03,.07,.07h0s-.03,.07-.07,.07-.07-.03-.07-.07"/><path class="cls-5" d="M127.4,33.91s.03-.07,.07-.07,.07,.03,.07,.07h0s-.03,.07-.07,.07-.07-.03-.07-.07"/><path class="cls-2" d="M127.4,33.91s.03-.07,.07-.07,.07,.03,.07,.07h0s-.03,.07-.07,.07-.07-.03-.07-.07"/><path class="cls-5" d="M127.44,35.4s.03-.07,.07-.07,.07,.03,.07,.07h0s-.03,.07-.07,.07-.07-.03-.07-.07"/><path class="cls-2" d="M127.44,35.4s.03-.07,.07-.07,.07,.03,.07,.07h0s-.03,.07-.07,.07-.07-.03-.07-.07"/><path class="cls-5" d="M127.44,36.77s.03-.07,.07-.07,.07,.03,.07,.07h0s-.03,.07-.07,.07-.07-.03-.07-.07m0,1.37s.03-.07,.07-.07,.07,.03,.07,.07h0s-.03,.07-.07,.07-.07-.03-.07-.07m0,1.37s.03-.07,.07-.07,.07,.03,.07,.07h0s-.03,.07-.07,.07-.07-.03-.07-.07m0,1.37s.03-.07,.07-.07,.07,.03,.07,.07h0s-.03,.07-.07,.07-.07-.03-.07-.07m0,1.37s.03-.07,.07-.07,.07,.03,.07,.07h0s-.03,.07-.07,.07-.07-.03-.07-.07"/><path class="cls-2" d="M127.44,36.77s.03-.07,.07-.07,.07,.03,.07,.07h0s-.03,.07-.07,.07-.07-.03-.07-.07m0,1.37s.03-.07,.07-.07,.07,.03,.07,.07h0s-.03,.07-.07,.07-.07-.03-.07-.07m0,1.37s.03-.07,.07-.07,.07,.03,.07,.07h0s-.03,.07-.07,.07-.07-.03-.07-.07m0,1.37s.03-.07,.07-.07,.07,.03,.07,.07h0s-.03,.07-.07,.07-.07-.03-.07-.07m0,1.37s.03-.07,.07-.07,.07,.03,.07,.07h0s-.03,.07-.07,.07-.07-.03-.07-.07"/><path class="cls-5" d="M127.44,43.63s.03-.07,.07-.07,.07,.03,.07,.07h0s-.03,.07-.07,.07-.07-.03-.07-.07"/><path class="cls-2" d="M127.44,43.63s.03-.07,.07-.07,.07,.03,.07,.07h0s-.03,.07-.07,.07-.07-.03-.07-.07"/><path class="cls-5" d="M125.93,35.4s.03-.07,.07-.07,.07,.03,.07,.07h0s-.03,.07-.07,.07-.07-.03-.07-.07"/><path class="cls-2" d="M125.93,35.4s.03-.07,.07-.07,.07,.03,.07,.07h0s-.03,.07-.07,.07-.07-.03-.07-.07"/><path class="cls-5" d="M125.93,36.77s.03-.07,.07-.07,.07,.03,.07,.07h0s-.03,.07-.07,.07-.07-.03-.07-.07m0,1.37s.03-.07,.07-.07,.07,.03,.07,.07h0s-.03,.07-.07,.07-.07-.03-.07-.07m0,1.37s.03-.07,.07-.07,.07,.03,.07,.07h0s-.03,.07-.07,.07-.07-.03-.07-.07m0,1.37s.03-.07,.07-.07,.07,.03,.07,.07h0s-.03,.07-.07,.07-.07-.03-.07-.07m0,1.37s.03-.07,.07-.07,.07,.03,.07,.07h0s-.03,.07-.07,.07-.07-.03-.07-.07"/><path class="cls-2" d="M125.93,36.77s.03-.07,.07-.07,.07,.03,.07,.07h0s-.03,.07-.07,.07-.07-.03-.07-.07m0,1.37s.03-.07,.07-.07,.07,.03,.07,.07h0s-.03,.07-.07,.07-.07-.03-.07-.07m0,1.37s.03-.07,.07-.07,.07,.03,.07,.07h0s-.03,.07-.07,.07-.07-.03-.07-.07m0,1.37s.03-.07,.07-.07,.07,.03,.07,.07h0s-.03,.07-.07,.07-.07-.03-.07-.07m0,1.37s.03-.07,.07-.07,.07,.03,.07,.07h0s-.03,.07-.07,.07-.07-.03-.07-.07"/><path class="cls-5" d="M125.93,43.63s.03-.07,.07-.07,.07,.03,.07,.07h0s-.03,.07-.07,.07-.07-.03-.07-.07"/><path class="cls-2" d="M125.93,43.63s.03-.07,.07-.07,.07,.03,.07,.07h0s-.03,.07-.07,.07-.07-.03-.07-.07"/><path class="cls-5" d="M124.42,35.4s.03-.07,.07-.07,.07,.03,.07,.07h0s-.03,.07-.07,.07-.07-.03-.07-.07"/><path class="cls-2" d="M124.42,35.4s.03-.07,.07-.07,.07,.03,.07,.07h0s-.03,.07-.07,.07-.07-.03-.07-.07"/><path class="cls-5" d="M124.42,36.77s.03-.07,.07-.07,.07,.03,.07,.07h0s-.03,.07-.07,.07-.07-.03-.07-.07m0,1.37s.03-.07,.07-.07,.07,.03,.07,.07h0s-.03,.07-.07,.07-.07-.03-.07-.07m0,1.37s.03-.07,.07-.07,.07,.03,.07,.07h0s-.03,.07-.07,.07-.07-.03-.07-.07m0,1.37s.03-.07,.07-.07,.07,.03,.07,.07h0s-.03,.07-.07,.07-.07-.03-.07-.07m0,1.37s.03-.07,.07-.07,.07,.03,.07,.07h0s-.03,.07-.07,.07-.07-.03-.07-.07"/><path class="cls-2" d="M124.42,36.77s.03-.07,.07-.07,.07,.03,.07,.07h0s-.03,.07-.07,.07-.07-.03-.07-.07m0,1.37s.03-.07,.07-.07,.07,.03,.07,.07h0s-.03,.07-.07,.07-.07-.03-.07-.07m0,1.37s.03-.07,.07-.07,.07,.03,.07,.07h0s-.03,.07-.07,.07-.07-.03-.07-.07m0,1.37s.03-.07,.07-.07,.07,.03,.07,.07h0s-.03,.07-.07,.07-.07-.03-.07-.07m0,1.37s.03-.07,.07-.07,.07,.03,.07,.07h0s-.03,.07-.07,.07-.07-.03-.07-.07"/><path class="cls-5" d="M124.42,43.63s.03-.07,.07-.07,.07,.03,.07,.07h0s-.03,.07-.07,.07-.07-.03-.07-.07"/><path class="cls-2" d="M124.42,43.63s.03-.07,.07-.07,.07,.03,.07,.07h0s-.03,.07-.07,.07-.07-.03-.07-.07"/><path class="cls-5" d="M132,35.4s.03-.07,.07-.07,.07,.03,.07,.07h0s-.03,.07-.07,.07-.07-.03-.07-.07"/><path class="cls-2" d="M132,35.4s.03-.07,.07-.07,.07,.03,.07,.07h0s-.03,.07-.07,.07-.07-.03-.07-.07"/><path class="cls-5" d="M132,36.77s.03-.07,.07-.07,.07,.03,.07,.07h0s-.03,.07-.07,.07-.07-.03-.07-.07m0,1.37s.03-.07,.07-.07,.07,.03,.07,.07h0s-.03,.07-.07,.07-.07-.03-.07-.07m0,1.37s.03-.07,.07-.07,.07,.03,.07,.07h0s-.03,.07-.07,.07-.07-.03-.07-.07m0,1.37s.03-.07,.07-.07,.07,.03,.07,.07h0s-.03,.07-.07,.07-.07-.03-.07-.07m0,1.37s.03-.07,.07-.07,.07,.03,.07,.07h0s-.03,.07-.07,.07-.07-.03-.07-.07"/><path class="cls-2" d="M132,36.77s.03-.07,.07-.07,.07,.03,.07,.07h0s-.03,.07-.07,.07-.07-.03-.07-.07m0,1.37s.03-.07,.07-.07,.07,.03,.07,.07h0s-.03,.07-.07,.07-.07-.03-.07-.07m0,1.37s.03-.07,.07-.07,.07,.03,.07,.07h0s-.03,.07-.07,.07-.07-.03-.07-.07m0,1.37s.03-.07,.07-.07,.07,.03,.07,.07h0s-.03,.07-.07,.07-.07-.03-.07-.07m0,1.37s.03-.07,.07-.07,.07,.03,.07,.07h0s-.03,.07-.07,.07-.07-.03-.07-.07"/><path class="cls-5" d="M132,43.63s.03-.07,.07-.07,.07,.03,.07,.07h0s-.03,.07-.07,.07-.07-.03-.07-.07"/><path class="cls-2" d="M132,43.63s.03-.07,.07-.07,.07,.03,.07,.07h0s-.03,.07-.07,.07-.07-.03-.07-.07"/><path class="cls-5" d="M130.49,35.4s.03-.07,.07-.07,.07,.03,.07,.07h0s-.03,.07-.07,.07-.07-.03-.07-.07"/><path class="cls-2" d="M130.49,35.4s.03-.07,.07-.07,.07,.03,.07,.07h0s-.03,.07-.07,.07-.07-.03-.07-.07"/><path class="cls-5" d="M130.49,36.77s.03-.07,.07-.07,.07,.03,.07,.07h0s-.03,.07-.07,.07-.07-.03-.07-.07m0,1.37s.03-.07,.07-.07,.07,.03,.07,.07h0s-.03,.07-.07,.07-.07-.03-.07-.07m0,1.37s.03-.07,.07-.07,.07,.03,.07,.07h0s-.03,.07-.07,.07-.07-.03-.07-.07m0,1.37s.03-.07,.07-.07,.07,.03,.07,.07h0s-.03,.07-.07,.07-.07-.03-.07-.07m0,1.37s.03-.07,.07-.07,.07,.03,.07,.07h0s-.03,.07-.07,.07-.07-.03-.07-.07"/><path class="cls-2" d="M130.49,36.77s.03-.07,.07-.07,.07,.03,.07,.07h0s-.03,.07-.07,.07-.07-.03-.07-.07m0,1.37s.03-.07,.07-.07,.07,.03,.07,.07h0s-.03,.07-.07,.07-.07-.03-.07-.07m0,1.37s.03-.07,.07-.07,.07,.03,.07,.07h0s-.03,.07-.07,.07-.07-.03-.07-.07m0,1.37s.03-.07,.07-.07,.07,.03,.07,.07h0s-.03,.07-.07,.07-.07-.03-.07-.07m0,1.37s.03-.07,.07-.07,.07,.03,.07,.07h0s-.03,.07-.07,.07-.07-.03-.07-.07"/><path class="cls-5" d="M130.49,43.63s.03-.07,.07-.07,.07,.03,.07,.07h0s-.03,.07-.07,.07-.07-.03-.07-.07"/><path class="cls-2" d="M130.49,43.63s.03-.07,.07-.07,.07,.03,.07,.07h0s-.03,.07-.07,.07-.07-.03-.07-.07"/><path class="cls-5" d="M128.98,35.4s.03-.07,.07-.07,.07,.03,.07,.07h0s-.03,.07-.07,.07-.07-.03-.07-.07"/><path class="cls-2" d="M128.98,35.4s.03-.07,.07-.07,.07,.03,.07,.07h0s-.03,.07-.07,.07-.07-.03-.07-.07"/><path class="cls-5" d="M128.98,36.77s.03-.07,.07-.07,.07,.03,.07,.07h0s-.03,.07-.07,.07-.07-.03-.07-.07m0,1.37s.03-.07,.07-.07,.07,.03,.07,.07h0s-.03,.07-.07,.07-.07-.03-.07-.07m0,1.37s.03-.07,.07-.07,.07,.03,.07,.07h0s-.03,.07-.07,.07-.07-.03-.07-.07m0,1.37s.03-.07,.07-.07,.07,.03,.07,.07h0s-.03,.07-.07,.07-.07-.03-.07-.07m0,1.37s.03-.07,.07-.07,.07,.03,.07,.07h0s-.03,.07-.07,.07-.07-.03-.07-.07"/><path class="cls-2" d="M128.98,36.77s.03-.07,.07-.07,.07,.03,.07,.07h0s-.03,.07-.07,.07-.07-.03-.07-.07m0,1.37s.03-.07,.07-.07,.07,.03,.07,.07h0s-.03,.07-.07,.07-.07-.03-.07-.07m0,1.37s.03-.07,.07-.07,.07,.03,.07,.07h0s-.03,.07-.07,.07-.07-.03-.07-.07m0,1.37s.03-.07,.07-.07,.07,.03,.07,.07h0s-.03,.07-.07,.07-.07-.03-.07-.07m0,1.37s.03-.07,.07-.07,.07,.03,.07,.07h0s-.03,.07-.07,.07-.07-.03-.07-.07"/><path class="cls-5" d="M128.98,43.63s.03-.07,.07-.07,.07,.03,.07,.07h0s-.03,.07-.07,.07-.07-.03-.07-.07"/><path class="cls-2" d="M128.98,43.63s.03-.07,.07-.07,.07,.03,.07,.07h0s-.03,.07-.07,.07-.07-.03-.07-.07"/></g><path class="cls-5" d="M112.9,23.73h-.43v-.41c-.13,.24-.39,.47-.87,.47-.73,0-1.2-.56-1.2-1.23,0-.72,.52-1.22,1.19-1.22,.48,0,.77,.26,.86,.45v-1.22h.45v3.16Zm-2.05-1.16c0,.43,.3,.81,.82,.81,.23,0,.44-.09,.58-.24,.15-.15,.24-.35,.23-.58,0-.23-.09-.43-.24-.57-.15-.15-.35-.23-.58-.23-.49,0-.82,.38-.82,.81h0Z"/><path class="cls-5" d="M113.94,20.58v.47h-.45v-.47h.45Zm0,.84v2.32h-.45v-2.32h.45Z"/><path class="cls-5" d="M116.88,23.47c0,.41-.1,.67-.27,.86-.21,.25-.58,.42-.98,.42-.66,0-1.05-.38-1.16-.77h.52c.05,.1,.14,.2,.26,.27,.14,.09,.3,.12,.4,.12,.39,0,.79-.29,.79-.81v-.24c-.14,.26-.42,.48-.84,.48-.7,0-1.21-.53-1.21-1.22,0-.73,.53-1.24,1.21-1.24,.39,0,.71,.2,.84,.46v-.39h.45v2.05Zm-2.05-.89c0,.44,.31,.81,.81,.81,.24,0,.43-.09,.58-.23,.14-.14,.22-.34,.23-.57,0-.18-.06-.39-.19-.55-.13-.16-.33-.27-.61-.27-.44,0-.81,.33-.81,.81h0Z"/><path class="cls-5" d="M117.91,20.58v.47h-.45v-.47h.45Zm0,.84v2.32h-.45v-2.32h.45Z"/><polygon class="cls-5" points="118.66 21.76 118.24 21.76 118.24 21.41 118.66 21.41 118.66 20.58 119.11 20.58 119.11 21.41 119.56 21.41 119.56 21.76 119.11 21.76 119.11 23.73 118.66 23.73 118.66 21.76"/><path class="cls-5" d="M122.16,23.73h-.45v-.41c-.16,.31-.5,.47-.87,.47-.75,0-1.2-.58-1.2-1.23,0-.71,.52-1.23,1.2-1.23,.46,0,.76,.26,.87,.48v-.41h.45v2.32Zm-2.07-1.15c0,.35,.25,.81,.82,.81,.36,0,.61-.2,.73-.46,.05-.11,.08-.23,.08-.35,0-.12-.02-.24-.07-.35-.11-.27-.37-.48-.75-.48-.49,0-.81,.38-.81,.82h0Z"/><rect class="cls-5" x="122.74" y="20.58" width=".45" height="3.16"/></g><g><path class="cls-4" d="M15.56,83.11v-6.16c0-4.3-3.48-7.78-7.78-7.78h0C3.48,69.17,0,72.65,0,76.94v19.94c0,6.06,5.49,10.64,11.45,9.54l35.53-6.52c6.59-1.21,11.38-6.96,11.38-13.66h0c0-1.73-1.4-3.14-3.14-3.14H15.56Z"/><g><g><path class="cls-7" d="M15.56,94v-.4l.37-.33c.62-.56,.92-.88,.93-1.21,0-.23-.14-.42-.47-.42-.25,0-.46,.12-.61,.24l-.19-.48c.21-.16,.55-.29,.93-.29,.64,0,1,.38,1,.89,0,.48-.35,.86-.76,1.23l-.26,.22h1.07v.56h-2.02Z"/><path class="cls-7" d="M17.98,94v-.4l.37-.33c.62-.56,.92-.88,.93-1.21,0-.23-.14-.42-.47-.42-.25,0-.46,.12-.61,.24l-.19-.48c.21-.16,.55-.29,.93-.29,.64,0,1,.38,1,.89,0,.48-.35,.86-.76,1.23l-.26,.22h1.07v.56h-2.02Z"/><path class="cls-7" d="M20.62,93.52c.08,0,.16,0,.29,0,.2-.01,.41-.07,.56-.18,.18-.13,.31-.31,.36-.53h-.01c-.13,.13-.31,.2-.57,.2-.48,0-.89-.34-.89-.89s.45-1.02,1.07-1.02c.73,0,1.08,.56,1.08,1.23,0,.59-.19,1.03-.5,1.31-.27,.25-.64,.38-1.09,.4-.11,0-.23,0-.3,0v-.52Zm.4-1.43c0,.25,.13,.46,.4,.46,.18,0,.31-.09,.37-.19,.02-.04,.04-.08,.04-.17,0-.3-.11-.6-.42-.6-.23,0-.39,.2-.39,.5Z"/><path class="cls-7" d="M24.66,91.62c-.07,0-.15,0-.26,0-.59,.05-.85,.35-.93,.68h.01c.14-.14,.34-.23,.6-.23,.48,0,.88,.34,.88,.93s-.43,1.03-1.05,1.03c-.76,0-1.13-.56-1.13-1.24,0-.53,.2-.98,.5-1.27,.29-.26,.65-.4,1.1-.42,.12,0,.2,0,.27,0v.51Zm-.36,1.43c0-.26-.14-.49-.42-.49-.18,0-.33,.11-.39,.25-.02,.04-.03,.09-.03,.17,.01,.3,.16,.57,.46,.57,.24,0,.38-.21,.38-.5Z"/><path class="cls-7" d="M26.36,92.63v.44h-1.15v-.44h1.15Z"/><path class="cls-7" d="M27.86,94v-.68h-1.26v-.43l1.08-1.73h.81v1.67h.34v.5h-.34v.68h-.63Zm0-1.18v-.63c0-.17,0-.35,.02-.53h-.02c-.09,.18-.17,.35-.26,.53l-.38,.62h.64Z"/><path class="cls-7" d="M31.15,91.15v.42l-1.17,2.43h-.71l1.17-2.29h-1.3v-.56h2.01Z"/><path class="cls-7" d="M31.75,93.52c.08,0,.16,0,.29,0,.2-.01,.41-.07,.56-.18,.18-.13,.31-.31,.36-.53h-.01c-.13,.13-.31,.2-.57,.2-.48,0-.89-.34-.89-.89s.45-1.02,1.07-1.02c.73,0,1.08,.56,1.08,1.23,0,.59-.19,1.03-.5,1.31-.27,.25-.64,.38-1.09,.4-.11,0-.23,0-.3,0v-.52Zm.4-1.43c0,.25,.13,.46,.4,.46,.18,0,.31-.09,.37-.19,.02-.04,.04-.08,.04-.17,0-.3-.11-.6-.42-.6-.23,0-.39,.2-.39,.5Z"/><path class="cls-7" d="M35.14,94v-.68h-1.26v-.43l1.08-1.73h.81v1.67h.34v.5h-.34v.68h-.63Zm0-1.18v-.63c0-.17,0-.35,.02-.53h-.02c-.09,.18-.17,.35-.26,.53l-.38,.62h.64Z"/></g><g><path class="cls-8" d="M15.69,87.05h.38v1.33h0c.14-.24,.38-.39,.72-.39,.53,0,.9,.44,.89,1.08,0,.76-.48,1.13-.95,1.13-.31,0-.55-.12-.71-.4h-.01l-.02,.35h-.33c0-.14,.02-.36,.02-.55v-2.56Zm.38,2.26s0,.1,.02,.14c.08,.27,.3,.45,.58,.45,.4,0,.64-.33,.64-.81,0-.42-.22-.79-.63-.79-.26,0-.51,.18-.59,.47,0,.04-.02,.1-.02,.16v.38Z"/><path class="cls-8" d="M19.69,90.08c-.1,.05-.32,.13-.61,.13-.64,0-1.06-.44-1.06-1.09s.45-1.12,1.14-1.12c.23,0,.43,.06,.53,.11l-.09,.3c-.09-.05-.24-.1-.45-.1-.49,0-.75,.36-.75,.8,0,.49,.31,.79,.74,.79,.22,0,.36-.06,.47-.11l.07,.29Z"/><path class="cls-8" d="M20.09,89.76c.11,.08,.31,.15,.51,.15,.28,0,.41-.14,.41-.32s-.11-.28-.39-.39c-.38-.14-.56-.35-.56-.6,0-.34,.28-.62,.73-.62,.21,0,.4,.06,.52,.13l-.1,.28c-.08-.05-.24-.12-.43-.12-.23,0-.36,.13-.36,.29,0,.18,.13,.25,.4,.36,.37,.14,.56,.32,.56,.64,0,.37-.29,.64-.79,.64-.23,0-.45-.06-.6-.15l.1-.29Z"/><path class="cls-8" d="M22.77,88.83v.29h-1.08v-.29h1.08Z"/><path class="cls-8" d="M23.22,88.61c0-.22,0-.4-.02-.57h.34l.02,.34h.01c.12-.2,.32-.39,.67-.39,.29,0,.51,.18,.6,.42h0c.07-.12,.15-.21,.24-.28,.13-.1,.27-.15,.47-.15,.28,0,.7,.18,.7,.92v1.25h-.38v-1.2c0-.41-.15-.65-.46-.65-.22,0-.39,.16-.46,.35-.02,.05-.03,.12-.03,.19v1.31h-.38v-1.27c0-.34-.15-.58-.44-.58-.24,0-.42,.19-.48,.39-.02,.06-.03,.12-.03,.19v1.28h-.38v-1.55Z"/><path class="cls-8" d="M27.08,89.17c0,.52,.34,.74,.73,.74,.28,0,.44-.05,.59-.11l.07,.28c-.14,.06-.37,.14-.71,.14-.65,0-1.04-.43-1.04-1.07s.38-1.14,.99-1.14c.69,0,.88,.61,.88,1,0,.08,0,.14-.01,.18h-1.49Zm1.13-.28c0-.25-.1-.63-.53-.63-.39,0-.56,.36-.59,.63h1.12Z"/><path class="cls-8" d="M30.89,87.05v2.56c0,.19,0,.4,.02,.55h-.35l-.02-.37h0c-.12,.24-.38,.42-.72,.42-.51,0-.91-.43-.91-1.08,0-.71,.43-1.14,.95-1.14,.32,0,.54,.15,.64,.32h0v-1.27h.39Zm-.39,1.85s0-.11-.02-.16c-.06-.25-.27-.45-.56-.45-.4,0-.63,.35-.63,.82,0,.43,.21,.78,.63,.78,.26,0,.5-.17,.56-.46,.01-.05,.02-.11,.02-.17v-.37Z"/><path class="cls-8" d="M31.96,87.44c0,.13-.09,.24-.25,.24-.14,0-.23-.11-.23-.24s.1-.24,.24-.24,.24,.11,.24,.24Zm-.43,2.71v-2.12h.39v2.12h-.39Z"/><path class="cls-8" d="M34.04,89.65c0,.18,0,.36,.04,.51h-.35l-.03-.27h-.01c-.12,.17-.35,.32-.65,.32-.43,0-.65-.3-.65-.61,0-.51,.46-.79,1.27-.79v-.04c0-.17-.05-.49-.48-.49-.2,0-.4,.06-.55,.16l-.09-.25c.17-.11,.43-.19,.7-.19,.65,0,.81,.44,.81,.87v.79Zm-.37-.57c-.42,0-.9,.07-.9,.48,0,.25,.17,.37,.36,.37,.28,0,.45-.18,.51-.35,.01-.04,.02-.08,.02-.12v-.37Z"/><path class="cls-8" d="M34.82,90.21c-.15,0-.25-.12-.25-.28s.11-.28,.26-.28,.26,.11,.26,.28-.1,.28-.26,.28h0Z"/><path class="cls-8" d="M37.08,90.08c-.1,.05-.32,.13-.61,.13-.64,0-1.06-.44-1.06-1.09s.45-1.12,1.14-1.12c.23,0,.43,.06,.53,.11l-.09,.3c-.09-.05-.24-.1-.45-.1-.49,0-.75,.36-.75,.8,0,.49,.31,.79,.74,.79,.22,0,.36-.06,.47-.11l.07,.29Z"/><path class="cls-8" d="M39.42,89.08c0,.78-.54,1.12-1.06,1.12-.57,0-1.02-.42-1.02-1.09,0-.71,.46-1.13,1.05-1.13s1.02,.44,1.02,1.09Zm-1.68,.02c0,.46,.27,.81,.64,.81s.64-.35,.64-.82c0-.36-.18-.81-.63-.81s-.65,.42-.65,.82Z"/><path class="cls-8" d="M39.9,88.61c0-.22,0-.4-.02-.57h.34l.02,.34h.01c.12-.2,.32-.39,.67-.39,.29,0,.51,.18,.6,.42h0c.07-.12,.15-.21,.24-.28,.13-.1,.27-.15,.47-.15,.28,0,.7,.18,.7,.92v1.25h-.38v-1.2c0-.41-.15-.65-.46-.65-.22,0-.39,.16-.46,.35-.02,.05-.03,.12-.03,.19v1.31h-.38v-1.27c0-.34-.15-.58-.44-.58-.24,0-.42,.19-.48,.39-.02,.06-.03,.12-.03,.19v1.28h-.38v-1.55Z"/></g></g></g></g></g></svg>